# xmcd CD database file
#
# Track frame offsets:
#	150
#	10763
#	21518
#	34195
#	45340
#	59035
#	71395
#	85138
#	97020
#	109783
#	123128
#	136865
#	149755
#	162398
#	174510
#	186973
#	200083
#	212373
#	223810
#	236445
#
# Disc length: 3333 seconds
#
# Revision: 0
# Processed by: cddbd v1.4PL0 Copyright (c) Steve Scherf et al.
# Submitted via: CDex 1.40Release
#
DISCID=240d0314
DTITLE=Texas Jim Robertson - Wedding Bells
DYEAR=1900
DGENRE=Country
TTITLE0=I Promise To Love You (1954)
TTITLE1=Automatic Woman (1954)
TTITLE2=Beware (1953)
TTITLE3=Scratchbritches Hill, Tenn. (1953)
TTITLE4=Hide Away Love (1954)
TTITLE5=Look What You Done To Me (1954)
TTITLE6=When I Was Young And Handsome (1948)
TTITLE7=Slippin' Around (1948)
TTITLE8=Wedding Bells (1948)
TTITLE9=Sad Heart (1948)
TTITLE10=Somebody Loses, Somebody Wins (1948)
TTITLE11=My Dreamboat Is Sinking (1948)
TTITLE12=O Bury Me Not On The Lone Prairie (1941)
TTITLE13=Lost Deep In The Bottom Of The Sea (1947/1948)
TTITLE14=Bread And Gravy (1948/1949)
TTITLE15=Last Page Of Mein Kampf (Early Or Mid 1940's)
TTITLE16=Signed, Sealed And Delivered (1948)
TTITLE17=Wildcat Baby (Ca. 1950/1951)
TTITLE18=I Sure Got It From You (1947)
TTITLE19=In Texas For The Roundup In The Spring (1941)
EXTD=ID3G: 2
EXTT0=
EXTT1=
EXTT2=
EXTT3=
EXTT4=
EXTT5=
EXTT6=
EXTT7=
EXTT8=
EXTT9=
EXTT10=
EXTT11=
EXTT12=
EXTT13=
EXTT14=
EXTT15=
EXTT16=
EXTT17=
EXTT18=
EXTT19=
PLAYORDER=
